<?xml version="1.0" encoding="UTF-8"?>
<svg version="1.1" viewBox="0 0 528.84 528.85" xmlns="http://www.w3.org/2000/svg" xmlns:cc="http://creativecommons.org/ns#" xmlns:dc="http://purl.org/dc/elements/1.1/" xmlns:rdf="http://www.w3.org/1999/02/22-rdf-syntax-ns#">
<metadata>
<rdf:RDF>
<cc:Work rdf:about="">
<dc:format>image/svg+xml</dc:format>
<dc:type rdf:resource="http://purl.org/dc/dcmitype/StillImage"/>
<dc:title/>
</cc:Work>
</rdf:RDF>
</metadata>
<g transform="translate(-107.62 -81.84)">
<g transform="matrix(2.0165 0 0 2.0165 -378.2 -374.28)">
<g transform="translate(0,-14)" fill="#fb8b00">
<rect x="340.37" y="378.87" width="18.183" height="72.731"/>
<path d="m347.12 446.95-60.429 21.857 45.714 18.571 26.143-35.786z"/>
</g>
<g transform="matrix(-1 0 0 1 745.35 -14)" fill="#fb8b00">
<rect x="340.37" y="378.87" width="18.183" height="72.731"/>
<path d="m347.12 446.95-60.429 21.857 45.714 18.571 26.143-35.786z"/>
</g>
<path transform="matrix(.59004 0 0 .59004 186.09 108.74)" d="m446.49 416.47c0 72.805-58.794 131.82-131.32 131.82-72.526 0-131.32-59.02-131.32-131.82 0-72.805 58.794-131.82 131.32-131.82 72.526 0 131.32 59.02 131.32 131.82z"/>
<path transform="translate(59.91)" d="m361.63 289.7c0 27.337-22.161 49.497-49.497 49.497s-49.497-22.161-49.497-49.497 22.161-49.497 49.497-49.497 49.497 22.161 49.497 49.497z"/>
<path transform="matrix(.38676 0 0 .38676 250.15 218.2)" d="m446.49 416.47c0 72.805-58.794 131.82-131.32 131.82-72.526 0-131.32-59.02-131.32-131.82 0-72.805 58.794-131.82 131.32-131.82 72.526 0 131.32 59.02 131.32 131.82z" fill="#fff"/>
<path d="m345.78 275.11s6.9297-6 26.264-6 26.264 6 26.264 6l-26.264 52.528z" fill="#fb8b00"/>
<path transform="translate(0,-8)" d="m369.46 266.72c0 5.4394-4.4096 9.849-9.849 9.849-5.4394 0-9.849-4.4095-9.849-9.849 0-5.4394 4.4095-9.849 9.849-9.849 5.4394 0 9.849 4.4095 9.849 9.849z" fill="#fff"/>
<path transform="translate(0,-8)" d="m391.94 269.37c0 3.5566-2.8832 6.4397-6.4397 6.4397s-6.4397-2.8832-6.4397-6.4397 2.8832-6.4397 6.4397-6.4397 6.4397 2.8832 6.4397 6.4397z" fill="#fff"/>
<path d="m332.14 297.04-84.842-36.493c10.947 32.379 32.496 64.02 75.637 75.938z"/>
<path d="m411.95 297.04 84.842-36.493c-10.947 32.379-32.496 64.02-75.637 75.938z"/>
</g>
</g>
</svg>
